<svg xmlns="http://www.w3.org/2000/svg" width="840" height="839" viewBox="0 0 840 839" role="img" aria-label="SuperFish">
  <defs>
    <linearGradient id="sf-mark-gradient" x1="300" y1="520" x2="810" y2="250" gradientUnits="userSpaceOnUse">
      <stop offset="0" stop-color="#11BDE8"/>
      <stop offset="0.48" stop-color="#087DF2"/>
      <stop offset="1" stop-color="#2028E8"/>
    </linearGradient>
  </defs>
  <g transform="translate(0 839) scale(.1 -.1)">
    <path fill="#0B7EF3" d="M3925 8194 c-281 -27 -470 -59 -680 -114 -554 -145 -1036 -387 -1485 -747 -166 -133 -437 -401 -554 -548 -296 -371 -476 -753 -541 -1145 -23 -135 -30 -383 -16 -510 74 -649 471 -1270 1066 -1668 236 -158 551 -290 825 -347 415 -87 838 26 1076 288 106 117 217 335 263 516 40 160 51 401 17 388 -6 -3 -48 -15 -91 -28 -68 -20 -102 -23 -225 -23 -128 0 -155 3 -233 27 -381 117 -655 430 -717 820 -17 105 -7 335 19 449 68 295 215 578 418 804 266 296 684 517 1108 585 121 20 429 17 540 -4 141 -28 251 -66 370 -129 244 -130 438 -184 675 -189 93 -2 117 2 205 29 252 78 379 97 580 89 248 -10 467 -70 735 -203 91 -45 167 -80 169 -78 12 11 -115 200 -228 342 -116 146 -398 426 -553 550 -553 441 -1227 726 -1958 828 -80 11 -211 17 -430 19 -173 1 -333 1 -355 -1z M6370 6285 c-8 -2 -49 -9 -90 -15 -219 -36 -454 -166 -614 -341 -124 -135 -236 -345 -272 -509 -9 -41 -19 -78 -23 -82 -3 -4 -56 -29 -118 -57 l-112 -50 -16 54 c-37 129 -199 185 -309 108 -51 -36 -85 -95 -88 -156 -3 -46 -3 -46 -78 -78 -41 -17 -106 -51 -144 -76 -38 -24 -72 -41 -75 -36 -4 4 -15 33 -24 64 -52 172 -229 290 -413 276 -96 -7 -168 -40 -244 -113 -72 -69 -106 -134 -121 -234 -10 -62 -9 -85 4 -135 42 -163 161 -276 328 -311 84 -17 148 -9 239 32 109 49 211 182 226 294 7 51 -6 41 210 156 101 54 101 54 125 17 36 -55 100 -85 170 -79 65 4 104 22 150 68 18 18 36 33 40 33 4 0 11 4 16 9 5 5 3 6 -4 2 -7 -4 -13 -2 -13 4 0 15 28 7 130 -41 86 -40 86 -40 97 -97 15 -80 49 -148 102 -201 24 -25 44 -50 43 -54 -2 -5 1 -6 6 -3 5 3 27 -4 49 -15 22 -11 67 -24 100 -30 76 -13 164 6 237 54 28 18 55 32 60 32 5 0 10 8 12 17 1 10 12 31 23 47 63 87 81 187 56 292 -37 151 2 289 110 388 76 68 146 95 255 96 77 0 92 -3 152 -33 73 -36 124 -87 160 -161 17 -34 24 -68 26 -134 4 -86 3 -92 -33 -164 -30 -62 -47 -82 -97 -119 -69 -50 -138 -74 -216 -74 -53 0 -54 1 -39 18 21 23 22 76 1 96 -27 27 -63 31 -92 9 -15 -11 -28 -29 -30 -41 -2 -13 -8 -19 -17 -16 -17 7 -38 -33 -54 -103 -11 -43 -10 -62 3 -115 28 -108 72 -186 155 -268 82 -81 153 -124 266 -161 100 -33 260 -33 365 -1 434 137 697 587 615 1053 -70 404 -363 726 -766 843 -122 35 -348 57 -429 41z M623 5315 c0 -44 2 -61 4 -37 2 23 2 59 0 80 -2 20 -4 1 -4 -43z M307 5184 c-3 -5 -17 -61 -31 -126 -93 -414 -113 -880 -50 -1186 52 -255 179 -503 383 -746 36 -43 65 -83 63 -87 -1 -5 4 -8 10 -7 7 2 12 -4 10 -12 -2 -8 0 -12 4 -8 9 10 35 -12 28 -23 -3 -5 0 -8 8 -7 7 2 12 -3 10 -10 -1 -8 2 -11 7 -8 5 4 36 -17 68 -45 32 -28 68 -58 80 -66 13 -8 20 -20 16 -26 -3 -5 -2 -7 4 -4 12 8 79 -41 75 -54 -1 -6 2 -8 7 -5 5 4 49 -19 98 -49 345 -217 770 -328 1202 -312 209 7 371 36 551 99 80 28 155 51 167 52 11 0 19 5 15 10 -3 5 2 6 12 3 9 -4 15 -3 12 2 -3 4 20 20 51 34 71 32 55 42 -51 34 -102 -7 -324 9 -431 32 -242 52 -483 176 -651 333 -58 54 -96 78 -234 146 -181 88 -374 208 -363 224 3 7 1 8 -5 4 -15 -9 -73 34 -65 47 3 6 1 7 -5 3 -15 -9 -154 112 -146 126 4 7 2 8 -5 4 -28 -17 -258 254 -404 474 -100 153 -249 446 -301 595 -54 157 -116 426 -116 513 0 30 -15 59 -23 46z M7568 4291 c-191 -77 -282 -283 -203 -460 32 -72 111 -151 182 -183 37 -17 67 -22 133 -22 73 0 93 4 142 28 64 31 135 102 168 166 84 164 15 371 -152 456 -71 37 -199 44 -270 15z M7935 3637 c-117 -56 -147 -190 -64 -290 42 -50 83 -70 150 -71 76 -1 131 35 165 107 30 65 30 110 2 167 -49 96 -157 133 -253 87z M5830 3523 c-125 -13 -301 -62 -432 -119 -43 -19 -83 -32 -90 -28 -6 4 -8 3 -5 -3 8 -13 -20 -26 -35 -16 -6 3 -8 1 -5 -5 4 -6 -18 -24 -50 -42 -182 -102 -366 -272 -494 -456 -42 -60 -125 -192 -184 -294 -60 -102 -126 -212 -149 -245 -211 -313 -425 -529 -716 -721 -118 -78 -189 -116 -201 -108 -7 4 -9 3 -6 -3 3 -5 -15 -20 -40 -32 -25 -12 -42 -26 -37 -30 23 -21 278 25 454 82 158 51 308 127 491 249 238 158 390 293 690 614 112 119 205 211 211 207 6 -3 8 -1 4 5 -7 12 140 148 160 146 7 -1 12 2 11 6 -5 21 195 149 331 212 102 47 280 102 387 119 110 17 310 15 430 -5 162 -27 361 -88 544 -166 28 -12 48 -26 45 -31 -3 -5 3 -6 12 -2 11 4 15 3 11 -4 -5 -7 0 -9 13 -6 11 3 20 7 20 10 0 20 -122 175 -195 248 -291 291 -769 461 -1175 418z M4040 3066 c-101 -28 -167 -83 -266 -217 -81 -110 -234 -256 -352 -337 -226 -155 -527 -254 -869 -287 -241 -24 -426 -18 -698 21 -459 66 -891 253 -1299 563 -59 45 -110 80 -113 77 -16 -16 264 -602 339 -708 11 -16 16 -33 13 -38 -4 -6 -2 -9 3 -8 11 3 95 -120 95 -139 0 -7 2 -11 5 -8 2 2 34 -35 70 -83 354 -470 670 -775 1107 -1069 652 -438 1436 -661 2245 -640 503 13 934 106 1407 303 259 108 448 210 683 368 505 340 922 785 1238 1322 78 132 247 471 258 519 7 27 -1 22 -77 -48 -102 -94 -192 -156 -280 -190 -98 -39 -163 -44 -246 -19 -96 30 -135 76 -135 162 0 26 3 56 6 67 5 17 -2 24 -46 42 -75 31 -257 77 -365 91 -129 18 -382 8 -488 -19 -175 -44 -326 -105 -473 -192 -189 -112 -334 -235 -581 -496 -80 -84 -149 -149 -154 -146 -6 3 -7 2 -4 -4 8 -13 -67 -86 -78 -76 -4 5 -5 3 -2 -3 8 -14 -26 -47 -38 -37 -4 5 -5 3 -2 -3 8 -14 -17 -37 -27 -26 -4 4 -6 0 -4 -8 2 -8 -3 -14 -9 -13 -7 2 -12 -1 -10 -6 3 -12 -154 -151 -165 -145 -5 3 -7 1 -6 -4 4 -15 -112 -103 -125 -95 -5 3 -7 1 -4 -4 7 -11 -171 -141 -297 -218 -347 -209 -725 -315 -1121 -315 -383 0 -780 107 -1175 317 -155 83 -311 183 -304 195 4 7 2 8 -5 4 -7 -5 -45 16 -91 50 -44 31 -80 59 -80 61 0 2 5 1 12 -3 7 -4 8 -3 4 5 -4 6 -11 9 -16 6 -4 -3 -16 3 -27 13 -10 9 -12 13 -3 7 12 -7 13 -7 2 5 -7 8 -20 15 -30 15 -9 0 -17 6 -17 14 0 8 -8 15 -18 17 -17 2 -75 49 -166 133 -20 18 -27 27 -16 20 18 -13 19 -13 6 3 -7 10 -17 15 -22 12 -10 -6 -253 229 -373 361 -88 97 -80 93 70 -33 54 -46 98 -88 96 -94 -1 -5 1 -7 6 -4 5 3 47 -22 93 -56 375 -275 756 -448 1169 -529 100 -20 146 -23 350 -23 206 0 247 3 334 22 283 63 536 182 771 361 33 25 110 95 171 156 207 207 379 489 428 703 22 97 20 148 -8 207 -29 63 -72 100 -138 120 -60 18 -96 18 -158 1z"/>
  </g>
</svg>
