<svg xmlns="http://www.w3.org/2000/svg" width="1539" height="422" viewBox="0 0 1539 422" role="img" aria-label="SuperFish 超级章鱼">
  <defs>
    <linearGradient id="sf-mark-gradient" x1="45" y1="265" x2="392" y2="92" gradientUnits="userSpaceOnUse">
      <stop offset="0" stop-color="#11BDE8"/>
      <stop offset="0.48" stop-color="#087DF2"/>
      <stop offset="1" stop-color="#2028E8"/>
    </linearGradient>
  </defs>
  <g transform="translate(0 422) scale(.0503 -.0503)">
    <path fill="#0B7EF3" d="M3925 8194 c-281 -27 -470 -59 -680 -114 -554 -145 -1036 -387 -1485 -747 -166 -133 -437 -401 -554 -548 -296 -371 -476 -753 -541 -1145 -23 -135 -30 -383 -16 -510 74 -649 471 -1270 1066 -1668 236 -158 551 -290 825 -347 415 -87 838 26 1076 288 106 117 217 335 263 516 40 160 51 401 17 388 -6 -3 -48 -15 -91 -28 -68 -20 -102 -23 -225 -23 -128 0 -155 3 -233 27 -381 117 -655 430 -717 820 -17 105 -7 335 19 449 68 295 215 578 418 804 266 296 684 517 1108 585 121 20 429 17 540 -4 141 -28 251 -66 370 -129 244 -130 438 -184 675 -189 93 -2 117 2 205 29 252 78 379 97 580 89 248 -10 467 -70 735 -203 91 -45 167 -80 169 -78 12 11 -115 200 -228 342 -116 146 -398 426 -553 550 -553 441 -1227 726 -1958 828 -80 11 -211 17 -430 19 -173 1 -333 1 -355 -1z M6370 6285 c-8 -2 -49 -9 -90 -15 -219 -36 -454 -166 -614 -341 -124 -135 -236 -345 -272 -509 -9 -41 -19 -78 -23 -82 -3 -4 -56 -29 -118 -57 l-112 -50 -16 54 c-37 129 -199 185 -309 108 -51 -36 -85 -95 -88 -156 -3 -46 -3 -46 -78 -78 -41 -17 -106 -51 -144 -76 -38 -24 -72 -41 -75 -36 -4 4 -15 33 -24 64 -52 172 -229 290 -413 276 -96 -7 -168 -40 -244 -113 -72 -69 -106 -134 -121 -234 -10 -62 -9 -85 4 -135 42 -163 161 -276 328 -311 84 -17 148 -9 239 32 109 49 211 182 226 294 7 51 -6 41 210 156 101 54 101 54 125 17 36 -55 100 -85 170 -79 65 4 104 22 150 68 18 18 36 33 40 33 4 0 11 4 16 9 5 5 3 6 -4 2 -7 -4 -13 -2 -13 4 0 15 28 7 130 -41 86 -40 86 -40 97 -97 15 -80 49 -148 102 -201 24 -25 44 -50 43 -54 -2 -5 1 -6 6 -3 5 3 27 -4 49 -15 22 -11 67 -24 100 -30 76 -13 164 6 237 54 28 18 55 32 60 32 5 0 10 8 12 17 1 10 12 31 23 47 63 87 81 187 56 292 -37 151 2 289 110 388 76 68 146 95 255 96 77 0 92 -3 152 -33 73 -36 124 -87 160 -161 17 -34 24 -68 26 -134 4 -86 3 -92 -33 -164 -30 -62 -47 -82 -97 -119 -69 -50 -138 -74 -216 -74 -53 0 -54 1 -39 18 21 23 22 76 1 96 -27 27 -63 31 -92 9 -15 -11 -28 -29 -30 -41 -2 -13 -8 -19 -17 -16 -17 7 -38 -33 -54 -103 -11 -43 -10 -62 3 -115 28 -108 72 -186 155 -268 82 -81 153 -124 266 -161 100 -33 260 -33 365 -1 434 137 697 587 615 1053 -70 404 -363 726 -766 843 -122 35 -348 57 -429 41z M623 5315 c0 -44 2 -61 4 -37 2 23 2 59 0 80 -2 20 -4 1 -4 -43z M307 5184 c-3 -5 -17 -61 -31 -126 -93 -414 -113 -880 -50 -1186 52 -255 179 -503 383 -746 36 -43 65 -83 63 -87 -1 -5 4 -8 10 -7 7 2 12 -4 10 -12 -2 -8 0 -12 4 -8 9 10 35 -12 28 -23 -3 -5 0 -8 8 -7 7 2 12 -3 10 -10 -1 -8 2 -11 7 -8 5 4 36 -17 68 -45 32 -28 68 -58 80 -66 13 -8 20 -20 16 -26 -3 -5 -2 -7 4 -4 12 8 79 -41 75 -54 -1 -6 2 -8 7 -5 5 4 49 -19 98 -49 345 -217 770 -328 1202 -312 209 7 371 36 551 99 80 28 155 51 167 52 11 0 19 5 15 10 -3 5 2 6 12 3 9 -4 15 -3 12 2 -3 4 20 20 51 34 71 32 55 42 -51 34 -102 -7 -324 9 -431 32 -242 52 -483 176 -651 333 -58 54 -96 78 -234 146 -181 88 -374 208 -363 224 3 7 1 8 -5 4 -15 -9 -73 34 -65 47 3 6 1 7 -5 3 -15 -9 -154 112 -146 126 4 7 2 8 -5 4 -28 -17 -258 254 -404 474 -100 153 -249 446 -301 595 -54 157 -116 426 -116 513 0 30 -15 59 -23 46z M7568 4291 c-191 -77 -282 -283 -203 -460 32 -72 111 -151 182 -183 37 -17 67 -22 133 -22 73 0 93 4 142 28 64 31 135 102 168 166 84 164 15 371 -152 456 -71 37 -199 44 -270 15z M7935 3637 c-117 -56 -147 -190 -64 -290 42 -50 83 -70 150 -71 76 -1 131 35 165 107 30 65 30 110 2 167 -49 96 -157 133 -253 87z M5830 3523 c-125 -13 -301 -62 -432 -119 -43 -19 -83 -32 -90 -28 -6 4 -8 3 -5 -3 8 -13 -20 -26 -35 -16 -6 3 -8 1 -5 -5 4 -6 -18 -24 -50 -42 -182 -102 -366 -272 -494 -456 -42 -60 -125 -192 -184 -294 -60 -102 -126 -212 -149 -245 -211 -313 -425 -529 -716 -721 -118 -78 -189 -116 -201 -108 -7 4 -9 3 -6 -3 3 -5 -15 -20 -40 -32 -25 -12 -42 -26 -37 -30 23 -21 278 25 454 82 158 51 308 127 491 249 238 158 390 293 690 614 112 119 205 211 211 207 6 -3 8 -1 4 5 -7 12 140 148 160 146 7 -1 12 2 11 6 -5 21 195 149 331 212 102 47 280 102 387 119 110 17 310 15 430 -5 162 -27 361 -88 544 -166 28 -12 48 -26 45 -31 -3 -5 3 -6 12 -2 11 4 15 3 11 -4 -5 -7 0 -9 13 -6 11 3 20 7 20 10 0 20 -122 175 -195 248 -291 291 -769 461 -1175 418z M4040 3066 c-101 -28 -167 -83 -266 -217 -81 -110 -234 -256 -352 -337 -226 -155 -527 -254 -869 -287 -241 -24 -426 -18 -698 21 -459 66 -891 253 -1299 563 -59 45 -110 80 -113 77 -16 -16 264 -602 339 -708 11 -16 16 -33 13 -38 -4 -6 -2 -9 3 -8 11 3 95 -120 95 -139 0 -7 2 -11 5 -8 2 2 34 -35 70 -83 354 -470 670 -775 1107 -1069 652 -438 1436 -661 2245 -640 503 13 934 106 1407 303 259 108 448 210 683 368 505 340 922 785 1238 1322 78 132 247 471 258 519 7 27 -1 22 -77 -48 -102 -94 -192 -156 -280 -190 -98 -39 -163 -44 -246 -19 -96 30 -135 76 -135 162 0 26 3 56 6 67 5 17 -2 24 -46 42 -75 31 -257 77 -365 91 -129 18 -382 8 -488 -19 -175 -44 -326 -105 -473 -192 -189 -112 -334 -235 -581 -496 -80 -84 -149 -149 -154 -146 -6 3 -7 2 -4 -4 8 -13 -67 -86 -78 -76 -4 5 -5 3 -2 -3 8 -14 -26 -47 -38 -37 -4 5 -5 3 -2 -3 8 -14 -17 -37 -27 -26 -4 4 -6 0 -4 -8 2 -8 -3 -14 -9 -13 -7 2 -12 -1 -10 -6 3 -12 -154 -151 -165 -145 -5 3 -7 1 -6 -4 4 -15 -112 -103 -125 -95 -5 3 -7 1 -4 -4 7 -11 -171 -141 -297 -218 -347 -209 -725 -315 -1121 -315 -383 0 -780 107 -1175 317 -155 83 -311 183 -304 195 4 7 2 8 -5 4 -7 -5 -45 16 -91 50 -44 31 -80 59 -80 61 0 2 5 1 12 -3 7 -4 8 -3 4 5 -4 6 -11 9 -16 6 -4 -3 -16 3 -27 13 -10 9 -12 13 -3 7 12 -7 13 -7 2 5 -7 8 -20 15 -30 15 -9 0 -17 6 -17 14 0 8 -8 15 -18 17 -17 2 -75 49 -166 133 -20 18 -27 27 -16 20 18 -13 19 -13 6 3 -7 10 -17 15 -22 12 -10 -6 -253 229 -373 361 -88 97 -80 93 70 -33 54 -46 98 -88 96 -94 -1 -5 1 -7 6 -4 5 3 47 -22 93 -56 375 -275 756 -448 1169 -529 100 -20 146 -23 350 -23 206 0 247 3 334 22 283 63 536 182 771 361 33 25 110 95 171 156 207 207 379 489 428 703 22 97 20 148 -8 207 -29 63 -72 100 -138 120 -60 18 -96 18 -158 1z"/>
  </g>
  <g transform="translate(450 422) scale(.1 -.1)">
    <path fill="#071452" d="M8330 3440 c-48 -9 -89 -32 -127 -72 -94 -98 -82 -257 25 -332 104
-74 276 -24 336 96 28 56 35 134 15 185 -32 86 -146 142 -249 123z M1255 3424
c-177 -26 -333 -92 -418 -177 -157 -158 -204 -424 -102 -587 60 -96 157 -153
390 -230 172 -57 222 -82 242 -124 33 -71 -9 -154 -102 -201 -58 -29 -64 -30
-200 -30 -156 0 -213 12 -344 71 -41 19 -81 34 -91 34 -24 0 -38 -20 -110
-162 -52 -102 -63 -131 -54 -145 14 -22 122 -67 244 -101 90 -25 107 -26 315
-26 193 0 229 2 296 21 191 54 323 154 398 304 75 148 92 329 42 432 -52 107
-146 166 -406 252 -192 63 -240 89 -253 137 -11 43 0 103 24 129 49 54 172 85
294 74 103 -9 150 -20 254 -62 86 -34 89 -34 106 -16 10 10 43 73 75 141 52
114 55 125 42 146 -17 25 -155 76 -277 102 -73 15 -304 27 -365 18z M9933
3400 c-67 -7 -109 -29 -123 -63 -6 -12 -37 -152 -69 -312 -90 -436 -144 -693
-207 -978 -31 -142 -53 -264 -50 -272 4 -12 34 -15 169 -15 115 0 168 4 180
13 16 11 43 125 149 627 17 80 37 152 45 161 8 9 42 29 76 45 48 22 77 28 129
29 80 0 116 -21 136 -81 13 -37 10 -59 -58 -369 -81 -374 -87 -409 -71 -420 7
-4 85 -7 173 -6 118 0 165 4 174 13 7 7 31 99 53 203 22 105 58 274 80 377 49
221 54 324 20 412 -42 114 -157 176 -323 176 -112 0 -200 -20 -281 -63 l-62
-33 9 40 c74 324 107 500 97 512 -12 15 -132 17 -246 4z M7113 3385 c-53 -16
-121 -56 -150 -87 -11 -12 -31 -42 -43 -64 -20 -40 -73 -263 -145 -609 -51
-247 -164 -766 -174 -804 -17 -59 -10 -61 183 -61 125 0 177 4 190 13 12 9 27
55 46 142 16 72 39 177 53 235 14 58 30 135 38 173 l13 67 301 0 c284 0 303 1
319 19 19 21 58 182 60 251 l1 45 -307 3 c-170 1 -308 6 -308 10 1 4 16 74 34
156 27 118 38 154 56 168 20 16 48 18 331 18 378 0 344 -16 383 178 21 103 24
137 15 148 -9 12 -83 14 -433 13 -319 0 -431 -4 -463 -14z M3940 2933 c-38 -8
-121 -42 -151 -64 -15 -10 -29 -19 -32 -19 -3 0 -7 15 -9 33 -3 32 -3 32 -123
29 -101 -2 -125 -6 -159 -25 -21 -12 -47 -33 -57 -47 -11 -15 -38 -117 -68
-260 -74 -348 -144 -670 -196 -895 -72 -315 -71 -304 -59 -323 10 -15 31 -17
172 -17 148 0 163 2 181 20 15 15 31 72 61 220 23 110 43 205 45 212 3 9 25 2
72 -20 61 -28 79 -32 179 -35 91 -3 125 0 190 18 170 46 277 136 359 302 50
103 76 195 100 355 50 336 -92 526 -388 522 -51 -1 -103 -4 -117 -6z M5045
2926 c-265 -75 -408 -224 -486 -506 -19 -70 -23 -110 -24 -230 0 -119 3 -154
19 -196 42 -114 120 -185 246 -226 94 -30 303 -36 441 -13 122 20 239 58 257
82 17 23 6 231 -13 251 -10 11 -28 9 -106 -16 -131 -42 -242 -57 -320 -43
-106 18 -153 59 -165 144 l-6 47 350 0 c414 0 386 -8 423 122 18 65 23 108 24
203 0 112 -2 124 -29 183 -38 82 -110 149 -197 181 -55 21 -85 25 -214 27
-107 3 -164 0 -200 -10z M6471 2924 c-64 -17 -110 -44 -168 -97 -29 -27 -40
-33 -38 -20 14 68 13 83 -1 98 -18 17 -94 19 -213 6 -109 -13 -115 -22 -156
-217 -64 -304 -145 -680 -171 -792 -14 -62 -23 -119 -20 -127 4 -12 33 -15
169 -15 115 0 168 4 180 13 12 8 39 116 95 374 55 257 83 368 97 383 10 11 50
36 88 55 57 29 81 35 131 35 34 0 77 -4 96 -10 58 -17 74 2 119 146 29 90 38
132 31 144 -11 21 -82 40 -142 39 -24 0 -67 -7 -97 -15z M8903 2920 c-127 -33
-216 -93 -275 -184 -97 -150 -95 -325 6 -413 61 -54 98 -70 309 -128 32 -9 55
-20 52 -25 -3 -5 1 -7 9 -4 24 9 50 -40 39 -73 -17 -49 -53 -66 -151 -71 -104
-5 -184 12 -287 63 -59 28 -73 32 -89 21 -22 -14 -116 -219 -116 -252 0 -19
13 -28 80 -53 44 -17 112 -38 151 -46 91 -19 302 -19 394 0 98 21 209 78 270
139 101 101 152 281 110 383 -41 98 -98 135 -313 202 -73 23 -142 51 -153 62
-44 44 -6 99 83 119 71 16 140 7 248 -31 145 -52 130 -57 189 66 28 59 51 118
51 131 0 31 -49 56 -175 89 -81 21 -119 25 -229 24 -95 0 -151 -5 -203 -19z
M2126 2910 c-47 -9 -61 -26 -75 -88 -5 -26 -26 -121 -45 -212 -19 -91 -49
-230 -67 -310 -41 -187 -45 -310 -11 -385 30 -65 82 -118 146 -147 46 -21 66
-23 191 -23 154 1 195 11 306 78 l54 33 0 -46 0 -45 150 -3 c112 -2 155 1 168
11 14 10 35 91 87 337 38 179 91 424 118 545 31 141 46 226 41 237 -12 22
-112 33 -237 25 -74 -4 -99 -10 -114 -24 -17 -18 -76 -265 -148 -628 -12 -60
-28 -119 -35 -130 -19 -30 -105 -74 -168 -85 -110 -21 -185 19 -194 101 -4 38
44 277 142 716 9 41 -26 53 -155 52 -63 -1 -133 -5 -154 -9z M8178 2913 c-60
-4 -70 -7 -92 -34 -15 -17 -26 -40 -26 -52 0 -11 -11 -68 -24 -126 -157 -675
-210 -921 -202 -929 4 -4 76 -10 159 -13 112 -5 160 -3 183 6 28 12 32 19 48
96 10 46 26 122 37 169 11 47 28 126 39 175 11 50 29 126 40 170 32 129 110
491 110 508 0 36 -51 41 -272 30z M3418 1313 c-21 -3 -30 -12 -34 -31 -14 -64
-12 -62 -72 -62 -31 0 -63 -4 -70 -9 -8 -4 -16 -26 -19 -48 -5 -40 -5 -40 52
-47 31 -3 61 -3 67 0 8 5 9 -3 5 -26 -4 -18 -7 -36 -7 -41 0 -5 -10 -9 -22
-10 -22 0 -22 -1 -3 -9 14 -6 0 -9 -46 -9 -36 -1 -73 -7 -81 -13 -9 -7 -20
-30 -23 -50 -7 -38 -7 -38 89 -38 85 0 96 -2 96 -18 0 -21 -38 -224 -43 -228
-2 -2 -10 7 -17 21 -12 22 -11 36 3 96 10 39 15 75 11 80 -8 13 -88 11 -107
-3 -9 -8 -27 -58 -42 -115 -14 -56 -41 -141 -60 -189 -19 -48 -35 -90 -35 -95
0 -5 27 -9 61 -9 60 0 60 0 88 60 l27 60 34 -36 c19 -20 58 -47 85 -60 49 -23
56 -24 346 -24 327 0 315 -2 326 64 6 35 5 36 -28 36 -19 0 -147 1 -286 3
-298 2 -288 -1 -266 95 14 62 14 62 73 62 58 0 58 0 65 40 4 21 4 44 0 50 -3
5 -28 10 -56 10 -53 0 -56 4 -43 69 6 30 7 31 65 31 33 0 59 3 59 8 0 4 31 6
70 6 38 -1 67 2 65 7 -3 4 0 11 6 14 18 12 74 106 99 168 24 57 24 57 72 57
33 0 46 -4 43 -12 -2 -7 -9 -39 -15 -70 -11 -57 -12 -58 -45 -58 -35 0 -45
-15 -45 -72 0 -28 0 -28 70 -28 86 0 125 17 138 62 6 18 18 79 28 136 25 148
34 142 -212 142 -188 0 -193 -1 -208 -22 -9 -12 -16 -35 -16 -50 0 -24 4 -27
40 -30 l40 -3 -24 -51 c-13 -28 -40 -75 -59 -103 -31 -44 -36 -48 -39 -29 -3
21 -9 23 -70 26 -73 3 -73 4 -62 61 6 30 8 31 65 31 70 0 89 15 89 71 0 39 0
39 -61 39 -61 0 -61 0 -55 44 6 35 4 45 -9 50 -17 6 -51 6 -97 -1z M5977 1314
c-4 -4 -7 -16 -7 -26 0 -17 -11 -18 -154 -18 -162 0 -167 -1 -179 -49 -9 -38
9 -51 71 -51 30 0 52 -3 49 -6 -3 -4 -2 -15 4 -25 9 -18 5 -19 -70 -19 -92 0
-111 -12 -111 -66 0 -40 -62 -36 484 -35 290 1 382 4 388 14 4 6 8 27 8 45 0
32 0 32 -84 32 -84 0 -84 0 -73 30 11 28 14 29 77 32 65 3 65 3 76 38 6 19 9
40 7 47 -4 10 -46 13 -168 13 -162 0 -164 0 -167 23 -3 20 -9 22 -73 25 -39 1
-74 0 -78 -4z m169 -173 c-14 -27 -19 -28 -89 -30 -94 -3 -122 5 -136 35 -11
24 -11 24 114 24 126 0 126 0 111 -29z M6955 1266 c-27 -28 -86 -82 -130 -120
-44 -37 -83 -76 -87 -85 -10 -28 6 -44 41 -39 17 2 31 4 31 4 0 -1 -16 -79
-35 -175 -36 -182 -36 -203 6 -216 33 -11 651 -8 679 3 14 6 31 17 38 25 15
17 72 312 72 369 0 45 -25 66 -87 70 l-42 3 39 36 c42 38 53 82 28 107 -8 8
-67 12 -202 12 -189 0 -189 0 -168 23 12 13 19 27 15 30 -3 4 -38 7 -77 6 -71
0 -71 0 -121 -53z M4545 1234 c-26 -41 -54 -78 -61 -81 -8 -3 -12 -8 -10 -12
2 -3 -16 -33 -40 -65 -42 -57 -54 -96 -36 -123 4 -6 32 -13 62 -15 l54 -3 -68
-75 c-79 -88 -100 -123 -92 -156 6 -22 11 -24 64 -24 72 1 262 16 268 22 2 3
7 26 10 51 l7 47 -76 0 -76 0 86 107 c98 121 145 192 137 204 -3 5 -32 9 -64
9 -56 0 -60 -1 -90 -40 -18 -22 -40 -40 -51 -40 -17 0 -14 8 24 58 53 70 125
176 133 197 5 12 -5 15 -63 15 -70 0 -70 0 -118 -76z M4782 1274 c-16 -11 -22
-25 -22 -55 0 -37 2 -39 30 -39 18 0 30 -5 30 -13 0 -20 -58 -293 -77 -359 -8
-32 -19 -55 -24 -52 -5 3 -6 -2 -3 -10 3 -9 -6 -47 -22 -86 -28 -71 -39 -90
-28 -45 8 30 16 30 -181 2 -139 -21 -150 -24 -162 -47 -7 -14 -13 -40 -13 -59
0 -33 0 -34 38 -27 20 4 94 17 164 29 126 23 126 23 112 -5 -8 -15 -14 -32
-14 -38 0 -15 125 -13 138 3 16 19 89 195 113 274 l23 72 29 -70 29 -70 -86
-88 c-53 -55 -86 -96 -86 -110 0 -19 5 -21 60 -21 59 0 60 1 122 58 l62 59 38
-59 c38 -58 38 -58 108 -58 84 0 87 6 32 88 -94 140 -92 122 -23 223 34 49 74
114 88 145 25 56 25 56 6 83 -13 17 -32 28 -56 31 l-37 5 50 83 c55 91 65 143
31 162 -12 6 -105 10 -233 10 -177 0 -217 -3 -236 -16z M4750 1036 c0 -2 7 -9
15 -16 12 -10 15 -10 15 4 0 9 -7 16 -15 16 -8 0 -15 -2 -15 -4z M5655 977
c-21 -18 -31 -41 -45 -112 -23 -110 -25 -149 -5 -165 8 -7 13 -15 11 -19 -2
-3 54 -5 125 -5 71 1 129 -3 129 -7 0 -5 -79 -9 -175 -9 -165 0 -175 -1 -185
-20 -6 -12 -10 -33 -8 -48 3 -27 3 -27 175 -30 l173 -2 -7 -46 c-7 -54 -1 -60
66 -63 58 -2 76 12 86 69 l7 40 178 0 c195 0 197 1 202 61 l3 34 -185 5 c-102
3 -180 7 -175 9 19 6 41 8 142 9 97 2 104 4 133 30 25 23 32 42 50 129 11 55
20 106 20 112 0 5 -10 19 -22 31 -21 19 -34 20 -344 20 -321 0 -323 0 -349
-23z M3640 902 c-18 -14 -26 -42 -45 -147 -12 -71 -21 -135 -18 -142 4 -10 50
-13 197 -13 176 0 194 2 213 19 15 14 27 52 44 141 23 122 23 122 0 141 -21
17 -42 19 -196 19 -151 0 -176 -2 -195 -18z M720 903 c-31 -11 -50 -37 -50
-67 0 -37 7 -49 37 -65 32 -17 1932 -15 1954 2 9 7 21 22 28 35 15 29 -3 71
-39 89 -20 10 -227 13 -970 12 -520 0 -952 -3 -960 -6z M8075 886 c-34 -34
-33 -78 1 -105 27 -21 31 -21 984 -21 953 0 957 0 984 21 33 26 36 77 5 105
-20 18 -53 19 -985 22 -965 2 -965 2 -989 -22z M7083 603 c15 -2 39 -2 55 0
15 2 2 4 -28 4 -30 0 -43 -2 -27 -4z M3682 583 c48 -2 129 -2 180 0 51 1 12 3
-87 3 -99 0 -141 -2 -93 -3z M6673 578 c-6 -7 -13 -26 -17 -41 -14 -58 -22
-57 434 -57 230 0 425 3 434 6 8 3 18 21 22 40 12 66 28 64 -441 64 -326 0
-425 -3 -432 -12z"/>
  </g>
</svg>
